<svg aria-hidden="true" style="width:0;height:0;position:absolute;overflow:hidden" xmlns="http://www.w3.org/2000/svg"><defs><symbol id="icon-search" viewBox="0 0 32 32"><path d="M13.44 1.92C7.437 1.92 2.56 6.798 2.56 12.8s4.878 10.88 10.88 10.88c2.375 0 4.57-.765 6.36-2.06l8.42 8.4 1.8-1.8-8.32-8.34a10.832 10.832 0 0 0 2.62-7.08c0-6.003-4.878-10.88-10.88-10.88zm0 1.28c5.31 0 9.6 4.29 9.6 9.6s-4.29 9.6-9.6 9.6-9.6-4.29-9.6-9.6 4.29-9.6 9.6-9.6z"/></symbol><symbol id="icon-js" viewBox="0 0 32 32"><path d="M0 0h32v32H0V0z"/><path d="M20.25 23.125c.625 1.063 1.5 1.813 2.938 1.813 1.25 0 2.063-.625 2.063-1.5 0-1-.813-1.375-2.188-2l-.75-.313c-2.188-.938-3.625-2.063-3.625-4.5 0-2.25 1.688-4 4.375-4 1.938 0 3.313.688 4.25 2.438L25 16.563c-.5-.938-1.063-1.313-1.938-1.313s-1.438.563-1.438 1.313c0 .875.563 1.25 1.875 1.813l.75.313c2.563 1.125 4 2.188 4 4.75 0 2.688-2.125 4.188-5 4.188-2.813 0-4.625-1.313-5.5-3.063zm-10.625.25c.5.813.875 1.563 1.938 1.563 1 0 1.625-.375 1.625-1.875V12.688h3v10.25c0 3.125-1.813 4.5-4.5 4.5-2.438 0-3.813-1.25-4.5-2.75z"/></symbol></defs></svg>