<svg aria-hidden="true" style="position: absolute; width: 0; height: 0; overflow: hidden;" version="1.1" xmlns="http://www.w3.org/2000/svg" xmlns:xlink="http://www.w3.org/1999/xlink">
<defs>
<symbol id="icon-search" viewBox="0 0 32 32">
<path d="M13.44 1.92c-6.003 0-10.88 4.878-10.88 10.88s4.878 10.88 10.88 10.88c2.375 0 4.57-0.765 6.36-2.060l8.42 8.4 1.8-1.8-8.32-8.34c1.635-1.905 2.62-4.378 2.62-7.080 0-6.003-4.878-10.88-10.88-10.88zM13.44 3.2c5.31 0 9.6 4.29 9.6 9.6s-4.29 9.6-9.6 9.6c-5.31 0-9.6-4.29-9.6-9.6s4.29-9.6 9.6-9.6z"></path>
</symbol>
<symbol id="icon-js" viewBox="0 0 32 32">
<path d="M0 0h32v32h-32v-32z"></path>
<path d="M20.25 23.125c0.625 1.063 1.5 1.813 2.938 1.813 1.25 0 2.063-0.625 2.063-1.5 0-1-0.813-1.375-2.188-2l-0.75-0.313c-2.188-0.938-3.625-2.063-3.625-4.5 0-2.25 1.688-4 4.375-4 1.938 0 3.313 0.688 4.25 2.438l-2.313 1.5c-0.5-0.938-1.063-1.313-1.938-1.313s-1.438 0.563-1.438 1.313c0 0.875 0.563 1.25 1.875 1.813l0.75 0.313c2.563 1.125 4 2.188 4 4.75 0 2.688-2.125 4.188-5 4.188-2.813 0-4.625-1.313-5.5-3.063zM9.625 23.375c0.5 0.813 0.875 1.563 1.938 1.563 1 0 1.625-0.375 1.625-1.875v-10.375h3v10.25c0 3.125-1.813 4.5-4.5 4.5-2.438 0-3.813-1.25-4.5-2.75z"></path>
</symbol>
</defs>
</svg>
